<svg xmlns="http://www.w3.org/2000/svg" width="50" height="70" viewBox="0 0 50 70">
  <title>Artboard 216 copy 3</title>
  <rect x="-2706.42" y="-107.93" width="2895.85" height="277.43" style="fill: none;stroke: #1cd191;stroke-miterlimit: 10;stroke-width: 3.885113723657702px"/>
  <g>
    <path d="M48,18.3a2.14,2.14,0,0,0-1.53-.65H3.56a2.12,2.12,0,0,0-2.12,2.2L3,61.91a7,7,0,0,0,7.06,6.8H39.92A7,7,0,0,0,47,61.91l1.58-42.06A2.15,2.15,0,0,0,48,18.3ZM42.76,61.75a2.84,2.84,0,0,1-2.84,2.73H10.08a2.84,2.84,0,0,1-2.84-2.73L5.75,21.88h38.5Z" style="fill: #055a6e"/>
    <path d="M16.91,58.28a2,2,0,0,0,2-2V30.05a2,2,0,0,0-3.92,0V56.31A2,2,0,0,0,16.91,58.28Z" style="fill: #055a6e"/>
    <path d="M32,58.28a2,2,0,0,0,2-2V30.05a2,2,0,0,0-3.92,0V56.31A2,2,0,0,0,32,58.28Z" style="fill: #055a6e"/>
    <path d="M4.38,14.2H45.62a2.12,2.12,0,0,0,0-4.23H31.83V8.13a6.84,6.84,0,1,0-13.67,0V10H4.38a2.12,2.12,0,0,0,0,4.23Zm18-6.07a2.61,2.61,0,1,1,5.22,0V10H22.39Z" style="fill: #055a6e"/>
  </g>
</svg>
