<svg xmlns="http://www.w3.org/2000/svg" xmlns:xlink="http://www.w3.org/1999/xlink" width="492.13" height="492.13" viewBox="0 0 492.13 492.13"><defs><style>.cls-1,.cls-3,.cls-4{fill:none;}.cls-2{fill:#e5ebf3;}.cls-3,.cls-4{stroke:#fff;stroke-linecap:round;stroke-linejoin:round;stroke-width:3px;}.cls-4{stroke-dasharray:0 19.39;}.cls-5{isolation:isolate;}.cls-6{opacity:0.8;fill:url(#linear-gradient);}.cls-7{fill:url(#New_Pattern_Swatch_24);}.cls-8{fill:#c6dade;}.cls-9{fill:#d3dae2;mix-blend-mode:multiply;}.cls-10{fill:url(#New_Gradient_Swatch_5);}.cls-11{fill:#ffe278;}.cls-12{fill:url(#New_Gradient_Swatch_5-2);}.cls-13{fill:url(#New_Gradient_Swatch_5-3);}.cls-14{fill:url(#New_Gradient_Swatch_5-4);}.cls-15{fill:url(#New_Gradient_Swatch_5-5);}.cls-16{fill:url(#New_Gradient_Swatch_5-6);}.cls-17{fill:#010101;}.cls-18{fill:#1e1e1c;}</style><linearGradient id="linear-gradient" x1="7.37" y1="248.71" x2="473.78" y2="248.71" gradientUnits="userSpaceOnUse"><stop offset="0" stop-color="#7ec9ce"/><stop offset="0.25" stop-color="#7ac7cc"/><stop offset="0.48" stop-color="#6fc0c5"/><stop offset="0.7" stop-color="#5db4ba"/><stop offset="0.91" stop-color="#43a4aa"/><stop offset="1" stop-color="#359ba2"/></linearGradient><pattern id="New_Pattern_Swatch_24" data-name="New Pattern Swatch 24" width="141" height="140" patternTransform="translate(1501.2 404.24) scale(0.65)" patternUnits="userSpaceOnUse" viewBox="0 0 141 140"><rect class="cls-1" width="141" height="140"/><polygon class="cls-2" points="69.38 277.88 69.38 135.73 291.54 135.73 291.54 277.88 69.38 277.88"/><polygon class="cls-2" points="-71.62 277.88 -71.62 135.73 150.54 135.73 150.54 277.88 -71.62 277.88"/><polygon class="cls-2" points="-212.62 277.88 -212.62 135.73 9.54 135.73 9.54 277.88 -212.62 277.88"/><polygon class="cls-2" points="69.38 137.88 69.38 -4.27 291.54 -4.27 291.54 137.88 69.38 137.88"/><polygon class="cls-2" points="-71.62 137.88 -71.62 -4.27 150.54 -4.27 150.54 137.88 -71.62 137.88"/><line class="cls-3" x1="27.08" y1="9.53" x2="27.08" y2="9.53"/><line class="cls-4" x1="27.08" y1="28.92" x2="27.08" y2="116.17"/><line class="cls-3" x1="27.08" y1="125.86" x2="27.08" y2="125.86"/><line class="cls-3" x1="50.08" y1="9.53" x2="50.08" y2="9.53"/><line class="cls-4" x1="50.08" y1="28.92" x2="50.08" y2="116.17"/><line class="cls-3" x1="50.08" y1="125.86" x2="50.08" y2="125.86"/><line class="cls-3" x1="73.08" y1="9.53" x2="73.08" y2="9.53"/><line class="cls-4" x1="73.08" y1="28.92" x2="73.08" y2="116.17"/><line class="cls-3" x1="73.08" y1="125.86" x2="73.08" y2="125.86"/><line class="cls-3" x1="96.08" y1="9.53" x2="96.08" y2="9.53"/><line class="cls-4" x1="96.08" y1="28.92" x2="96.08" y2="116.17"/><line class="cls-3" x1="96.08" y1="125.86" x2="96.08" y2="125.86"/><line class="cls-3" x1="119.08" y1="9.53" x2="119.08" y2="9.53"/><line class="cls-4" x1="119.08" y1="28.92" x2="119.08" y2="116.17"/><line class="cls-3" x1="119.08" y1="125.86" x2="119.08" y2="125.86"/><line class="cls-3" x1="142.08" y1="9.53" x2="142.08" y2="9.53"/><line class="cls-4" x1="142.08" y1="28.92" x2="142.08" y2="116.17"/><line class="cls-3" x1="142.08" y1="125.86" x2="142.08" y2="125.86"/><polygon class="cls-2" points="-212.62 137.88 -212.62 -4.27 9.54 -4.27 9.54 137.88 -212.62 137.88"/><line class="cls-3" x1="1.08" y1="9.53" x2="1.08" y2="9.53"/><line class="cls-4" x1="1.08" y1="28.92" x2="1.08" y2="116.17"/><line class="cls-3" x1="1.08" y1="125.86" x2="1.08" y2="125.86"/></pattern><linearGradient id="New_Gradient_Swatch_5" x1="213.47" y1="298.7" x2="279.04" y2="298.7" gradientUnits="userSpaceOnUse"><stop offset="0" stop-color="#f08238"/><stop offset="1" stop-color="#fec707"/></linearGradient><linearGradient id="New_Gradient_Swatch_5-2" x1="220.98" y1="279.63" x2="286.55" y2="279.63" xlink:href="#New_Gradient_Swatch_5"/><linearGradient id="New_Gradient_Swatch_5-3" x1="220.98" y1="258.26" x2="286.55" y2="258.26" xlink:href="#New_Gradient_Swatch_5"/><linearGradient id="New_Gradient_Swatch_5-4" x1="208.96" y1="241.13" x2="274.53" y2="241.13" xlink:href="#New_Gradient_Swatch_5"/><linearGradient id="New_Gradient_Swatch_5-5" x1="214.69" y1="223.64" x2="280.26" y2="223.64" xlink:href="#New_Gradient_Swatch_5"/><linearGradient id="New_Gradient_Swatch_5-6" x1="222.2" y1="204.57" x2="287.77" y2="204.57" xlink:href="#New_Gradient_Swatch_5"/></defs><title>Artboard 61v</title><g class="cls-5"><g id="Layer_1" data-name="Layer 1"><circle class="cls-6" cx="240.58" cy="248.71" r="233.2"/><circle class="cls-7" cx="252.58" cy="242.4" r="232.18"/><ellipse class="cls-8" cx="253.13" cy="240.65" rx="120.84" ry="120.31"/><ellipse class="cls-9" cx="234.81" cy="298.5" rx="21.19" ry="36.71" transform="translate(-68.41 527.18) rotate(-88.83)"/><path class="cls-10" d="M213.83,280.28l-.36,17.34c-.09,4.82,3,9.71,9.28,13.51,12.59,7.61,33.23,8,46.11.94,6.45-3.55,9.73-8.3,9.83-13.12L279,281.6Z"/><ellipse class="cls-11" cx="246.43" cy="280.89" rx="18.83" ry="32.61" transform="translate(-39.42 521.55) rotate(-88.83)"/><path class="cls-12" d="M221.33,261.21,221,278.56c-.1,4.81,3,9.7,9.28,13.5,12.59,7.61,33.23,8,46.11.94,6.44-3.55,9.73-8.3,9.82-13.12l.36-17.34Z"/><ellipse class="cls-11" cx="253.94" cy="261.82" rx="18.83" ry="32.61" transform="translate(-13 510.38) rotate(-88.83)"/><path class="cls-13" d="M221.33,239.83,221,257.18c-.1,4.82,3,9.7,9.28,13.51,12.59,7.61,33.23,8,46.11.93,6.44-3.54,9.73-8.3,9.82-13.11l.36-17.35Z"/><ellipse class="cls-11" cx="253.94" cy="240.45" rx="18.83" ry="32.61" transform="translate(8.37 489.44) rotate(-88.83)"/><path class="cls-14" d="M209.32,222.71,209,240.06c-.1,4.81,3,9.7,9.28,13.5,12.58,7.61,33.23,8,46.11.94,6.44-3.54,9.72-8.3,9.82-13.12l.35-17.34Z"/><ellipse class="cls-11" cx="241.93" cy="223.33" rx="18.83" ry="32.61" transform="translate(13.72 460.65) rotate(-88.83)"/><path class="cls-15" d="M215.05,205.22l-.36,17.35c-.09,4.81,3,9.7,9.28,13.5,12.59,7.61,33.23,8,46.12.94,6.44-3.55,9.72-8.3,9.82-13.12l.35-17.34Z"/><ellipse class="cls-11" cx="247.65" cy="205.83" rx="18.83" ry="32.61" transform="translate(36.82 449.24) rotate(-88.83)"/><path class="cls-16" d="M222.56,186.15l-.36,17.35c-.1,4.81,3,9.7,9.28,13.5,12.59,7.61,33.23,8,46.11.94,6.45-3.54,9.73-8.3,9.82-13.12l.36-17.34Z"/><ellipse class="cls-11" cx="255.16" cy="186.76" rx="18.83" ry="32.61" transform="translate(63.24 438.07) rotate(-88.83)"/><path class="cls-17" d="M243.89,260.62a53,53,0,0,1-22.17-4.6,1.06,1.06,0,0,1,1-1.9,52.91,52.91,0,0,0,25.91,4.18,1.06,1.06,0,0,1,.19,2.11Q246.25,260.62,243.89,260.62Z"/><path class="cls-17" d="M248.92,243.16c-.86,0-1.4,0-1.5,0a1,1,0,0,1-1-1.11,1,1,0,0,1,1.12-1c.14,0,14.55.72,24.58-6.61a1.06,1.06,0,1,1,1.25,1.71C264.57,242.54,253,243.16,248.92,243.16Z"/><path class="cls-17" d="M264.36,298.21a1.06,1.06,0,0,1-.12-2.12c.05,0,5.57-.67,13.36-5.06a1.06,1.06,0,1,1,1,1.85c-8.21,4.62-13.93,5.29-14.17,5.32Z"/><path class="cls-17" d="M249.58,223.74h-.15c-26-3.61-28-17.19-28.07-17.76a1.06,1.06,0,1,1,2.1-.28c0,.07.49,3.17,3.87,6.64,3.19,3.27,9.66,7.53,22.39,9.3a1.06,1.06,0,0,1,.91,1.19A1.07,1.07,0,0,1,249.58,223.74Z"/><path class="cls-18" d="M253.6,194.13a21.44,21.44,0,0,1-8.22-2.13l2.56-2.05a17.05,17.05,0,0,0,7,1.75c3.11,0,4.67-.8,4.72-2.24.12-3.53-12.93-3.18-12.76-8.19.08-2.48,2.92-4.21,7.25-4.58l.09-2.73,3.83,0-.09,2.67a14.9,14.9,0,0,1,6.88,2.16L262,180.6a10.87,10.87,0,0,0-5.51-1.49c-2.58,0-4.19.7-4.24,2.09-.11,3.2,12.95,2.72,12.76,8.11-.08,2.54-2.83,4.37-7.59,4.79l-.09,2.75-3.83,0Z"/></g></g></svg>